<?xml version="1.0"?>
<svg width="1000" height="1000" xmlns="http://www.w3.org/2000/svg" xmlns:svg="http://www.w3.org/2000/svg">
 <defs>
  <clipPath id="clip0_4_11">
   <rect fill="white" height="1000" id="svg_1" width="1000"/>
  </clipPath>
 </defs>
 <g class="layer">
  <title>Layer 1</title>
  <g clip-path="url(#clip0_4_11)" id="svg_2">
   <rect fill="#ffffff" height="1000" id="svg_3" width="1000"/>
   <mask height="579" id="mask0_4_11" maskUnits="userSpaceOnUse" width="638" x="180" y="174">
    <path d="m817.03,174.94l-636.55,0l0,577.58l636.55,0l0,-577.58z" fill="white" id="svg_4"/>
   </mask>
   <g id="svg_5" mask="url(#mask0_4_11)" transform="matrix(1 0 0 1 0 0)">
    <path clip-rule="evenodd" d="m348.8,674.16c58.31,47.36 125.66,74.36 197.5,74.36c106.83,0 203.8,-59.88 275.77,-157.4c-30.39,-41.16 -65.22,-75.64 -103.41,-101.71l-61.31,30.61c13.18,20.5 20.85,44.91 20.85,71.1c0,72.77 -59.04,131.75 -131.9,131.75c-56.61,0 -104.88,-35.63 -123.59,-85.66l-73.91,36.91l0,0.04zm152.12,-75.97c1.47,9.56 5.94,18.46 12.89,25.4c8.6,8.6 20.3,13.43 32.49,13.4c25.36,0 45.93,-20.53 45.93,-45.87c0,-12.44 -4.96,-23.73 -13.02,-32.01l-78.26,39.08l-0.03,0z" fill="#000000" fill-rule="evenodd" id="svg_6"/>
    <path d="m365.5,590.1l446.91,-214.84l-98.22,-204.32l-50.73,180.55l-60.96,-126.84l-50.76,180.54l-60.96,-126.84l-50.76,180.55l-60.96,-126.85l-50.76,180.55l-60.96,-126.85l-81.85,290.9l111.72,-53.71l68.29,-32.81l0,-0.03z" fill="#000000" id="svg_7"/>
   </g>
  </g>
 </g>
</svg>